{
    "scene":  0,
    "nodes":  [
                  {
                      "name":  "TwinCube",
                      "mesh":  0
                  }
              ],
    "accessors":  [
                      {
                          "byteOffset":  0,
                          "min":  [
                                      -0.5,
                                      -0.5,
                                      -0.5
                                  ],
                          "type":  "VEC3",
                          "max":  [
                                      0.5,
                                      0.5,
                                      0.5
                                  ],
                          "count":  24,
                          "bufferView":  0,
                          "componentType":  5126
                      },
                      {
                          "type":  "VEC3",
                          "byteOffset":  0,
                          "bufferView":  1,
                          "count":  24,
                          "componentType":  5126
                      },
                      {
                          "type":  "SCALAR",
                          "byteOffset":  0,
                          "bufferView":  2,
                          "count":  36,
                          "componentType":  5123
                      }
                  ],
    "scenes":  [
                   {
                       "nodes":  [
                                     0
                                 ]
                   }
               ],
    "buffers":  [
                    {
                        "uri":  "data:application/octet-stream;base64,",
                        "byteLength":  696
                    }
                ],
    "asset":  {
                  "version":  "2.0"
              },
    "materials":  [
                      {
                          "pbrMetallicRoughness":  {
                                                       "roughnessFactor":  0.5,
                                                       "baseColorFactor":  [
                                                                               0.16,
                                                                               0.55,
                                                                               0.85,
                                                                               1
                                                                           ],
                                                       "metallicFactor":  0.2
                                                   },
                          "name":  "TwinMaterial"
                      }
                  ],
    "bufferViews":  [
                        {
                            "byteLength":  288,
                            "byteOffset":  0,
                            "target":  34962,
                            "buffer":  0
                        },
                        {
                            "byteLength":  288,
                            "byteOffset":  288,
                            "target":  34962,
                            "buffer":  0
                        },
                        {
                            "byteLength":  120,
                            "byteOffset":  576,
                            "target":  34963,
                            "buffer":  0
                        }
                    ],
    "meshes":  [
                   {
                       "primitives":  [
                                          {
                                              "material":  0,
                                              "attributes":  {
                                                                 "NORMAL":  1,
                                                                 "POSITION":  0
                                                             },
                                              "indices":  2
                                          }
                                      ]
                   }
               ]
}